<svg width="24" height="24" viewBox="0 0 24 24" fill="none" xmlns="http://www.w3.org/2000/svg">
<path d="M12 8L8.7977 9.5611C8.14552 9.87904 7.81943 10.038 7.581 10.278C7.37017 10.4903 7.20964 10.7471 7.11124 11.0297C6.99995 11.3492 6.99995 11.7119 6.99995 12.4375V21H17V12.4375C17 11.7119 17 11.3492 16.8887 11.0297C16.7903 10.7471 16.6297 10.4903 16.4189 10.278C16.1805 10.038 15.8544 9.87904 15.2022 9.5611L12 8ZM12 8V3M14 5H9.99995M6.99995 13L4.76873 14.1156C4.12659 14.4366 3.80551 14.5971 3.57094 14.8366C3.3635 15.0484 3.20574 15.3037 3.10907 15.5839C2.99976 15.9009 2.99976 16.2598 2.99976 16.9778V21H20.9998V16.9777C20.9998 16.2598 20.9998 15.9008 20.8904 15.5839C20.7938 15.3037 20.636 15.0484 20.4286 14.8366C20.1941 14.5971 19.873 14.4366 19.2309 14.1155L17 13M14 21V17C14 15.8954 13.1045 15 12 15C10.8954 15 9.99995 15.8954 9.99995 17V21H14Z" stroke="currentColor" stroke-linecap="round" stroke-linejoin="round"/>
</svg>
