<svg width="24" height="24" viewBox="0 0 24 24" fill="none" xmlns="http://www.w3.org/2000/svg">
<path d="M12 7.99998V13M12 16H12.01M8.84752 20.6602H15.1525C15.8255 20.6602 16.1621 20.6602 16.4633 20.5623C16.7299 20.4757 16.9753 20.3341 17.1836 20.1465C17.419 19.9346 17.5872 19.6431 17.9238 19.0602L21.0762 13.6C21.4128 13.0171 21.581 12.7256 21.6469 12.4158C21.7052 12.1416 21.7052 11.8583 21.6469 11.5842C21.581 11.2743 21.4128 10.9829 21.0762 10.4L17.9238 4.93972C17.5872 4.35684 17.419 4.06539 17.1836 3.85343C16.9753 3.66589 16.7299 3.52422 16.4633 3.43761C16.1621 3.33972 15.8255 3.33972 15.1525 3.33972H8.84752C8.17446 3.33972 7.83793 3.33972 7.53667 3.43761C7.27011 3.52422 7.02473 3.66589 6.81644 3.85343C6.58104 4.06539 6.41277 4.35684 6.07624 4.93972L2.92376 10.4C2.58723 10.9829 2.41897 11.2743 2.35311 11.5842C2.29483 11.8583 2.29483 12.1416 2.35311 12.4158C2.41897 12.7256 2.58723 13.0171 2.92376 13.6L6.07624 19.0602C6.41277 19.6431 6.58104 19.9346 6.81644 20.1465C7.02473 20.3341 7.27011 20.4757 7.53667 20.5623C7.83793 20.6602 8.17446 20.6602 8.84752 20.6602Z" stroke-linecap="round" stroke-linejoin="round"/>
</svg>
