<svg width="24" height="24" viewBox="0 0 24 24" fill="none" xmlns="http://www.w3.org/2000/svg">
<path d="M20.0002 18.9996C20.0149 17.4044 19.2776 16.6658 18.5325 16.4236C17.8764 16.2103 16.5326 16.4052 15.5372 15.896C14.5855 15.4091 14.0482 14.1203 14.003 12.6571M15.9995 20L15.9994 20.01M7.64991 19L7.64982 19.01M19.6602 7L19.6601 7.01M12.5 19C12.5 17.5 12 16.5 11.0647 15.5949M16.422 10.2377C17.5 11 18.5 11.5 20.0826 11.0082M14.7279 6.24271C13.6027 5.11749 12.0766 4.48535 10.4853 4.48535C8.89399 4.48535 7.36787 5.11749 6.24265 6.24271C5.11743 7.36793 4.48529 8.89405 4.48529 10.4854C4.48529 12.0766 5.11743 13.6028 6.24265 14.728L14.7279 6.24271Z" stroke-linecap="round" stroke-linejoin="round"/>
</svg>
