<svg width="24" height="24" viewBox="0 0 24 24" fill="none" xmlns="http://www.w3.org/2000/svg">
<path d="M15 16.0686V7.93136C15 7.32554 15 7.02264 14.8802 6.88237C14.7763 6.76067 14.6204 6.69608 14.4608 6.70864C14.2769 6.72311 14.0627 6.9373 13.6344 7.36567L9.56573 11.4343C9.36772 11.6323 9.26872 11.7313 9.23163 11.8455C9.199 11.9459 9.199 12.0541 9.23163 12.1545C9.26872 12.2687 9.36772 12.3677 9.56573 12.5657L13.6344 16.6343C14.0627 17.0627 14.2769 17.2769 14.4608 17.2913C14.6204 17.3039 14.7763 17.2393 14.8802 17.1176C15 16.9773 15 16.6744 15 16.0686Z" stroke-linecap="round" stroke-linejoin="round"/>
</svg>
