<svg width="24" height="24" viewBox="0 0 24 24" fill="none" xmlns="http://www.w3.org/2000/svg">
<path d="M7.93142 15H16.0687C16.6745 15 16.9774 15 17.1177 14.8802C17.2394 14.7762 17.304 14.6203 17.2914 14.4608C17.2769 14.2769 17.0627 14.0627 16.6344 13.6343L12.5657 9.56567C12.3677 9.36766 12.2687 9.26866 12.1546 9.23156C12.0541 9.19894 11.946 9.19894 11.8455 9.23156C11.7314 9.26866 11.6324 9.36766 11.4344 9.56567L7.36573 13.6343C6.93736 14.0627 6.72317 14.2769 6.7087 14.4608C6.69614 14.6203 6.76073 14.7762 6.88243 14.8802C7.0227 15 7.3256 15 7.93142 15Z" stroke="currentColor" stroke-linecap="round" stroke-linejoin="round"/>
</svg>
